# xmcd
#
# Track frame offsets: 
#        183
#        33383
#        80508
#        110808
#        163058
#        186108
#
# Disc length: 2811 seconds
#
# Revision: 0
# Processed by: cddbd v1.5.2PL0 Copyright (c) Steve Scherf et al.
# Submitted via: ExactAudioCopy v0.99pb3
#
DISCID=4a0af906
DTITLE=Sonnny Rhodes - In Europe
DYEAR=1996
DGENRE=Blues
TTITLE0=Mean Mistreatin' Mama
TTITLE1=I'm So Lonely
TTITLE2=Every Day I Have The Blues
TTITLE3=Merry Christmas Baby
TTITLE4=East Oakland California
TTITLE5=Baby Why You Treat Me So Bad
EXTD=
EXTT0=
EXTT1=
EXTT2=
EXTT3=
EXTT4=
EXTT5=
PLAYORDER=
